PathFileType	4	(X/Y/Z)	OpenSim_Sub04_EMGStiffKnee_Accel.trc
DataRate	CameraRate	NumFrames	NumMarkers	Units	OrigDataRate	OrigDataStartFrame	OrigNumFrames
100	100	41	8	m	100	3104	8277
Frame#	Time	torso_imu_offset_imu	pelvis_imu_offset_imu	tibia_r_imu_offset_imu	femur_r_imu_offset_imu	tibia_l_imu_offset_imu	femur_l_imu_offset_imu	toes_r_imu_offset_imu	toes_l_imu_offset_imu
				X1	Y1	Z1	X2	Y2	Z2	X3	Y3	Z3	X4	Y4	Z4	X5	Y5	Z5	X6	Y6	Z6	X7	Y7	Z7	X8		Y8	Z8	

3104	31.03000000	-7.42556402	0.82068067	8.67817742	8.73167033	1.72737263	3.18057651	10.19306668	1.20029117	1.88103765	8.54878312	-3.75171960	0.11387424	9.41957559	-2.36054921	2.58237081	8.86428308	1.18163542	-0.46184215	7.07269962	-0.80636447	7.63925087	16.77397677	3.42930659	-2.22306336
3105	31.04000000	-7.33271894	0.81206624	8.57747504	8.49859788	1.69596989	3.11528662	10.27715813	1.29558574	2.06607878	8.50536520	-4.12904659	0.17824705	9.39989386	-2.65331247	2.78216182	8.70872381	1.22477395	-0.46035498	7.12159844	-0.81558802	7.76947533	13.46088638	0.10668041	-3.47056012
3106	31.05000000	-7.31518297	0.78225211	8.54435906	8.34629329	1.60675544	3.10737887	10.45781219	1.44136038	2.39570911	8.69503159	-4.59552928	0.10415242	9.38075722	-3.41315554	2.25396477	8.60922805	1.30774803	-0.49827991	6.97638525	-0.97994721	7.95429120	13.66101860	-1.21513784	8.19727132
3107	31.06000000	-7.49517007	0.68734094	8.58263134	8.39137247	1.59449147	3.26332191	10.85780698	1.12757549	2.60103128	8.98056743	-4.96479004	-0.03663897	9.88663301	-4.78917475	0.88728870	8.80785535	1.41814157	-0.61851988	6.78029545	-1.12993828	8.32559725	13.82755160	-1.29067829	21.25298058
3108	31.07000000	-7.92823799	0.51063025	8.70656722	8.64945996	1.56261995	3.67991649	11.48749126	0.36104866	2.64558679	9.22225870	-5.17614054	-0.00138117	10.65171225	-4.96429447	0.77848466	9.64730341	1.66175934	-1.07930018	7.06837745	-1.11029055	8.71951193	4.53865186	-6.23798324	18.34799388
3109	31.08000000	-8.45107034	0.37072892	8.92727555	9.02383442	1.37260638	4.25446200	12.36319060	-0.49201387	2.84411758	9.37778854	-5.18713653	0.16041451	10.97998200	-3.57131560	2.76722141	10.90885677	2.13958634	-1.73210102	7.13468400	-1.38683803	9.08375179	7.10642721	2.56943701	13.25057054
3110	31.09000000	-8.72086153	0.25521333	9.03821320	9.38279459	1.13674355	4.85607726	13.41715820	-1.27316104	3.20316352	9.50419326	-5.19336933	0.13425973	11.28830786	-2.71327174	3.08360733	12.07810512	2.05887330	-1.73675511	6.67546941	-2.07174920	9.40400155	12.33134955	10.66168948	10.93821883
3111	31.10000000	-8.75291579	0.07782663	9.16932528	9.70354884	0.85078754	5.30604897	14.62747547	-1.91045533	3.19335748	9.65037279	-5.30848204	-0.00494895	11.59968704	-2.61703433	0.52824101	13.28042574	1.04043946	-1.50483328	7.06834961	-2.21007305	10.16350351	8.36501621	3.54506159	12.11691677
3112	31.11000000	-8.80514255	-0.15003710	9.30662130	10.01813757	0.48794240	5.44058498	15.80796754	-2.45511213	3.30112357	9.75632608	-5.48074940	-0.04300167	11.34627483	-4.10599245	-2.53665300	13.34072931	-0.20551976	-1.81662050	6.72972727	-2.90667086	10.10556067	6.08619360	-0.46736220	13.47425973
3113	31.12000000	-8.63370052	-0.47839522	9.19976015	10.20364302	0.05168261	5.43628412	16.63948150	-2.28592102	3.65350626	9.70657876	-5.68617586	0.22823540	10.93084637	-7.24355462	-2.13937139	11.68021415	-1.09517668	-2.27363572	7.20666532	-4.01918576	10.68336430	6.05518427	2.05309110	11.77002056
3114	31.13000000	-8.17723813	-0.68895865	9.00059897	10.09739371	-0.35424908	5.45142079	16.70141509	-1.24716567	3.17253090	9.66142015	-5.72657343	0.89729294	10.61242568	-9.23657120	0.06041569	10.07301259	-1.44398163	-2.62727576	7.80982870	-4.22574962	11.68939901	6.00317320	3.13072282	11.06184280
3115	31.14000000	-7.80436509	-0.76177293	8.75453834	9.78025724	-0.59539154	5.36265759	16.29323150	-0.28884682	1.92939502	9.73671716	-5.44987432	1.76243196	9.35043728	-8.42321995	-0.75388201	9.37936448	-1.54999454	-2.48228948	9.84506189	-4.55205990	12.07620078	5.60653218	1.51567476	10.90894476
3116	31.15000000	-7.65093638	-0.90888925	8.45242569	9.35885457	-0.62544950	5.17831648	15.93563815	0.79005607	1.20112375	9.96003435	-4.78006855	2.58424423	7.89283845	-6.69877002	-0.94591442	9.28701735	-1.60330672	-2.15961645	11.71237198	-4.04514003	13.16097312	5.25659533	2.18047464	11.43768354
3117	31.16000000	-7.51083051	-1.05506043	8.28717229	8.77767011	-0.55580107	5.02286711	15.22036716	2.35655356	0.49250133	10.31587081	-3.95152610	3.21919912	7.72706756	-5.52765574	0.05728080	9.44780263	-1.61339658	-2.33859661	8.97339256	-4.33130771	12.15314588	5.35477539	2.68682868	11.19672394
3118	31.17000000	-7.36468871	-1.16645516	8.09962526	8.30359437	-0.49701921	4.85317460	14.15318148	4.25508345	0.23364441	10.57319540	-3.15385716	3.15119902	8.42689256	-3.34189477	-0.21436067	9.63709774	-1.66349285	-2.83280475	11.25545090	-4.96363337	12.55203050	5.75238024	2.68146688	10.73773208
3119	31.18000000	-7.22148466	-1.36012055	7.88982866	7.99808253	-0.42847695	4.60791488	12.55781631	6.28209851	-0.44931659	10.63143948	-2.29347137	2.20115303	9.25553008	-1.77888481	-0.20182601	9.52013777	-1.62958066	-3.19493552	17.18345908	-5.14603180	13.49380236	5.80786389	2.13793955	10.61826788
3120	31.19000000	-7.11393289	-1.52366278	7.84001022	7.86087424	-0.41396988	4.46676337	9.99916577	8.49260715	-1.50812668	10.32761031	-1.32966149	1.34770523	9.78379501	-1.95556374	-0.46426767	9.15181131	-1.42239726	-3.24359517	13.78069917	-7.58218957	12.87552082	5.60099445	2.03407642	10.79639765
3121	31.20000000	-7.31425928	-1.64791709	7.97787034	8.04716938	-0.30808566	4.41675627	7.30746584	10.40363916	-1.17284158	10.55057429	-0.42346191	0.96006516	10.07546250	-2.23249761	-1.07461432	8.98816385	-0.99754181	-3.15917154	6.84652450	-5.07266543	3.99076799	4.95317883	2.69601091	11.13337338
3122	31.21000000	-7.79895524	-1.75717722	8.21708794	8.47379987	-0.26461523	4.36879269	5.60534011	11.82830082	-2.42539101	11.63561639	-0.32924049	0.34667201	10.35199051	-2.64354983	-1.08291242	9.09204553	-0.26875524	-3.08633016	14.56750909	-2.19428821	18.30241348	5.07508950	2.67901245	11.04580172
3123	31.22000000	-8.20408726	-1.79784152	8.52932816	9.22361263	-0.27652305	4.51595061	5.03939010	11.82561229	-3.66509428	12.42082963	-1.13327238	-0.45846896	10.50201473	-3.11159494	-1.16374811	9.43689317	0.55207317	-3.15135006	4.05162164	-9.87595111	28.34230472	5.31464293	2.32671766	10.93239863
3124	31.23000000	-8.54943659	-1.85395631	8.83359142	10.06754587	-0.13282584	4.78838363	4.88891324	8.82307476	0.37163686	12.70844734	-2.01984048	-1.07814954	10.54945993	-3.40383591	-1.35984651	9.66302318	1.12456721	-3.19673547	-10.30732118	-14.89129762	13.30517625	5.23192580	2.23437752	11.03695902
3125	31.24000000	-8.95301362	-1.75046175	8.95444792	10.76050152	0.06558277	4.53476136	4.79720232	5.95454166	3.64885197	12.21865102	-2.63315632	-1.07300363	10.61453729	-3.56136417	-1.23337108	9.73620697	1.42405514	-3.24246906	-0.09976806	-7.87205254	16.52862391	4.83742663	2.37374001	11.15671954
3126	31.25000000	-8.42970730	-1.44952493	8.89225416	11.19175141	0.31901113	4.16571856	4.52586586	5.44368572	1.19898875	10.95732496	-2.75939188	0.01249843	10.30185191	-3.49996490	-0.92517366	9.62538793	1.59301000	-3.36947066	1.71784341	-3.22286608	19.11092824	4.58313492	2.40154055	11.29199855
3127	31.26000000	-7.46368518	-1.15921802	8.73838107	11.21553222	0.48319235	4.20593814	3.51214324	5.42669522	-1.22823073	10.22821441	-2.70974729	1.45275167	9.83933696	-2.87850821	-0.74639616	9.25257268	1.54576436	-3.44621630	-0.99982957	-3.33344215	15.94022699	4.94271445	2.23089766	11.13677499
3128	31.27000000	-7.38552409	-0.88522885	8.61342820	10.93990209	0.55974174	4.18672277	2.39128719	4.72939276	0.36662378	10.06295255	-3.10721285	2.23902338	9.79511062	-2.15097913	-0.69405695	8.99898110	1.32415357	-3.43453552	-0.64022250	-2.97939183	13.93164981	4.98222327	2.23653356	11.01338985
3129	31.28000000	-7.71152531	-0.65138332	8.52715300	10.40115304	0.51875256	4.04238504	2.13091452	4.01200323	1.92869859	9.89646078	-3.50501319	2.38191104	9.96521094	-1.76711351	-0.63162654	8.94397369	1.12534025	-3.33769775	0.91311658	-3.30168203	12.48366778	4.91070246	2.26046259	10.98446324
3130	31.29000000	-7.75155140	-0.53288988	8.42978255	9.74366313	0.35811027	3.91414920	2.42055023	4.51873070	0.51151834	9.75493283	-3.60530952	2.30431433	10.01847312	-1.54587433	-0.61476737	8.95567578	0.99603569	-3.15802021	2.85178555	-2.62291191	11.79555169	4.71610840	2.38954046	11.11467093
3131	31.30000000	-7.61871558	-0.41717854	8.44046517	9.13555818	0.16799835	3.79551090	3.12203067	6.28407785	-0.49134934	9.44299767	-3.62521873	2.23466663	9.98779895	-1.36365041	-0.61606084	9.09521631	0.93123786	-2.91252264	3.83260197	-1.78679020	11.03493957	5.00110294	2.44212071	10.82542118
3132	31.31000000	-7.63791489	-0.36918070	8.41462114	8.62356676	-0.01507167	3.64869932	4.40625996	8.00735539	-0.38059424	8.82219176	-3.71438132	2.19536889	9.94798169	-1.28672513	-0.60927678	9.25503199	1.03752925	-2.71595236	4.92137169	-0.56182006	10.52462239	4.91008208	2.39831257	10.77384261
3133	31.32000000	-7.65285425	-0.47597327	8.27570750	8.29234539	-0.11411828	3.51543894	5.84274351	8.76428985	-0.08155532	8.18574368	-3.74697574	2.16475306	9.98227552	-1.49890880	-0.58245741	9.23512487	1.21020863	-2.61098293	6.40020328	0.55621130	10.06185374	5.09097987	2.53386562	10.65145236
3134	31.33000000	-7.51881063	-0.67722011	8.23797823	8.18168544	-0.18100884	3.38534241	7.05551052	8.90802170	0.07303013	7.69746578	-3.81134334	2.21582663	10.07937171	-1.82171942	-0.58476469	9.05564153	1.30197659	-2.69454694	7.38894659	0.87197599	9.42445514	5.06272093	2.52570081	10.73149706
3135	31.34000000	-7.37524499	-0.86954267	8.23431334	8.13235711	-0.21266625	3.31657779	7.52962565	8.93667024	0.05750367	7.35111682	-4.02974766	2.36465779	10.08464239	-2.07111314	-0.27357644	8.90930851	1.32477687	-2.85764382	8.19575113	1.10875460	8.79597507	5.03210014	2.39649500	10.83047091
3136	31.35000000	-7.35981717	-1.02760971	8.21012430	8.16377625	-0.25872855	3.26511543	6.93703613	8.61848661	0.20712692	7.21635932	-4.05620215	2.54635858	9.95610887	-2.17231801	0.01641122	8.94038968	1.20043169	-2.95198766	9.03355101	1.69160409	8.26605119	5.62579312	2.09798393	10.52388745
3137	31.36000000	-7.38274659	-1.12067311	8.21657910	8.35481026	-0.36056255	3.16965662	5.87667972	7.63993545	0.35330776	7.08978953	-4.00783088	2.70358151	9.78963900	-2.24951683	-0.07988643	9.06577153	0.87419101	-2.91159404	10.00212571	1.97201816	7.84163290	5.62564487	2.01746903	10.51993681
3138	31.37000000	-7.35939948	-1.11788986	8.24054654	8.56777672	-0.47375539	3.09180320	5.22795936	6.66020171	0.58009979	6.89271008	-3.91194834	2.80091027	9.67612888	-2.41204916	-0.16733075	9.19967820	0.40051490	-2.91085954	10.98894642	1.72870929	7.45129634	5.41441889	2.36604146	10.66771293
3139	31.38000000	-7.32009436	-1.09620346	8.26539436	8.70419287	-0.60811477	3.05751383	5.32112233	6.25586294	0.97453420	6.61703992	-3.71298790	2.83951180	9.58214573	-2.49237129	-0.37562020	9.32537805	0.04563639	-3.05457554	11.60374387	1.12986707	6.93666525	5.05818906	2.77473838	10.81215571
3140	31.39000000	-7.24424220	-1.04792879	8.26430300	8.91235381	-0.70992115	2.98292323	5.89069319	6.26576089	1.21064941	6.34895086	-3.61361082	2.94630330	9.50049308	-2.16567507	-0.72074621	9.33744147	-0.06013984	-3.13072841	12.66160086	0.09039145	6.47154255	5.37437297	2.95298139	10.43252635
3141	31.40000000	-7.10896122	-1.03789211	8.18229513	9.11988239	-0.79966850	2.84940451	6.59659729	6.42152325	1.39717993	6.05905287	-3.55614493	3.02043363	9.44829570	-1.57320069	-0.76549508	9.11304882	0.12475459	-3.11711794	14.65859445	-0.92082610	6.46178718	5.66672916	2.86512605	10.32227012
3142	31.41000000	-6.92147068	-1.05799150	8.15474299	9.21259977	-0.89750172	2.76259921	7.12827928	6.72502122	1.60934376	5.77930865	-3.56567407	3.04714219	9.46222588	-1.34214069	-0.79612248	8.84559986	0.45655224	-3.05998695	15.90651533	-1.11519454	6.64500922	5.67125225	2.88481140	10.37535928
3143	31.42000000	-6.83294920	-1.06096363	8.21689967	9.29401753	-0.93889586	2.71629938	7.44110836	6.92697250	1.47857605	5.62353140	-3.75492627	3.10730810	9.62147527	-1.47200432	-0.74399500	8.72433186	0.75401896	-3.01775702	15.45806035	-0.71540348	6.24085383	5.29480407	2.87359448	10.48611426
3144	31.43000000	-6.81407265	-1.07024849	8.18377369	9.27449823	-0.96684795	2.65564016	7.89632266	6.39319303	1.55013242	5.52642838	-3.98962209	3.17270615	9.74619917	-1.77320705	-0.50018215	8.78064633	0.92364856	-3.13942536	15.30703302	-0.82536866	5.23769311	5.17694520	3.22382817	10.60664957
